<svg width="74" height="44" viewBox="0 0 74 44" fill="none" xmlns="http://www.w3.org/2000/svg">
<path d="M8.88678 24.1285V13.9048H12.2156V23.7101C12.2156 24.4006 12.3683 24.5681 13.0721 24.5681H13.3576L13.7472 27.2761C13.4968 27.3108 12.466 27.3807 11.8465 27.3807C10.0147 27.3807 8.88678 26.7389 8.88678 24.1285ZM34.3673 17.8892L36.9578 17.6871L37.2082 18.4622C37.7306 17.9732 38.6357 17.4849 40.5856 17.4849C43.9495 17.4849 44.7153 19.8573 44.7153 22.5024C44.7153 25.1616 43.8588 27.5065 40.3837 27.5065C38.8381 27.5065 38.1138 27.1503 37.6961 26.7666V30.1234H34.3673V17.8892ZM41.3379 22.6352C41.3379 21.5046 41.1361 20.5137 39.6946 20.5137C38.1483 20.5137 37.6955 21.3024 37.6955 22.6352C37.6955 23.9681 38.0301 24.6868 39.6946 24.6868C41.101 24.6868 41.3379 23.7589 41.3379 22.6352ZM56.5815 17.8892L59.172 17.6871L59.5066 18.699C59.9244 18.1266 61.0869 17.6383 62.4658 17.5895V20.7999C60.2514 20.8135 59.9103 21.4764 59.9103 22.7957V27.3596H56.5815V17.8892ZM63.3924 17.5895H65.1054L65.6413 15.6284L68.2108 15.0701V17.5824H70.314V20.7929H68.2108V23.5773C68.2108 24.2331 68.3155 24.5681 69.3533 24.5681H70.314V27.346C69.8126 27.3807 69.2556 27.3948 68.6355 27.3948C65.8291 27.3948 64.903 26.5015 64.903 24.0797V20.7929H63.3919L63.3924 17.5895ZM71.2331 24.5681H74.0044V27.3455H71.2331V24.5681ZM0.669434 17.7011H2.48712V17.5125C2.48712 15.0907 3.39218 13.8766 6.51862 13.8766C7.34057 13.8766 7.49384 13.8907 7.89807 13.9254V16.6333H6.9644C6.01077 16.6333 5.80892 16.8708 5.80892 17.4919V17.7011H7.89105V20.5273H5.80892V27.346H2.4801V20.5273H0.669434V17.7011ZM20.9899 24.4705C20.4394 24.7914 20.1539 24.8684 19.0605 24.8684C17.7588 24.8684 17.2569 24.4077 17.0901 23.619H23.4822C23.6009 20.2205 23.3149 17.4778 19.06 17.4778C14.7845 17.4778 13.886 19.8367 13.886 22.4678C13.886 25.1616 14.7845 27.5341 19.06 27.5341C20.7454 27.5341 21.8108 27.2203 22.9393 26.488L20.9899 24.4705ZM18.9564 20.2135C20.3283 20.2135 20.4254 20.8693 20.4745 21.6509H17.048C17.1872 20.7295 17.619 20.2135 18.9564 20.2135Z" fill="white"/>
<path d="M30.0773 27.353L28.448 25.0147L26.8181 27.353H23.0996L26.5817 22.3772L23.4202 17.8892H27.1738L28.462 19.718L29.7502 17.8892H33.5524L30.3283 22.3555L33.8238 27.353H30.0773ZM45.4045 22.4954C45.4045 19.299 46.8671 17.4778 50.6277 17.4778C54.3877 17.4778 55.8363 19.299 55.8363 22.4954C55.8363 25.6917 54.3953 27.5276 50.6277 27.5276C46.8671 27.5341 45.4045 25.6988 45.4045 22.4954ZM52.4939 22.6C52.4939 21.3858 52.1944 20.5132 50.6277 20.5132C49.068 20.5132 48.7614 21.3858 48.7614 22.6C48.7614 23.7935 49.061 24.6868 50.6277 24.6868C52.1944 24.6868 52.4939 23.7935 52.4939 22.6Z" fill="white"/>
</svg>
