<svg width="40" height="44" viewBox="0 0 40 44" fill="none" xmlns="http://www.w3.org/2000/svg">
<g clip-path="url(#clip0_5411_3211)">
<path d="M20.3127 38.9794C10.9219 38.9794 3.22814 31.248 3.22814 21.8571C3.22814 19.7451 3.60528 17.7463 4.32185 15.8606L14.3161 35.9623C14.4293 36.2263 14.6179 36.4526 14.9196 36.4526C15.2213 36.4526 15.4099 36.2263 15.523 35.9623L20.1241 25.6663C20.1618 25.5531 20.2373 25.44 20.3504 25.44C20.4636 25.44 20.5013 25.5531 20.5767 25.6663L25.1779 35.9623C25.291 36.2263 25.4796 36.4526 25.7813 36.4526C26.083 36.4526 26.2716 36.2263 26.3847 35.9623L36.379 15.8606C37.0956 17.7463 37.4727 19.7451 37.4727 21.8571C37.3973 31.248 29.7036 38.9794 20.3127 38.9794ZM20.3127 17.9726C20.1996 17.9726 20.1618 17.8594 20.0864 17.7463L14.731 5.67771C16.4659 5.03657 18.3516 4.69714 20.3127 4.69714C22.2738 4.69714 24.1596 5.03657 25.8944 5.67771L20.539 17.7463C20.4636 17.8971 20.4258 17.9726 20.3127 17.9726ZM14.8441 30.3806C14.731 30.3806 14.6933 30.2674 14.6179 30.1543L5.94357 12.6549C7.48985 10.2789 9.56414 8.28 12.091 6.88457L18.3516 20.8011C18.427 21.0274 18.6156 21.1029 18.8041 21.1029H21.8213C22.0476 21.1029 22.1984 21.0651 22.3116 20.8011L28.5721 6.88457C31.0613 8.28 33.1733 10.2789 34.7196 12.6549L25.9698 30.1543C25.9321 30.2674 25.8567 30.3806 25.7436 30.3806C25.6304 30.3806 25.5927 30.2674 25.5173 30.1543L22.2361 22.6869C22.123 22.4229 21.9721 22.3851 21.7459 22.3851H18.7287C18.5024 22.3851 18.3516 22.4229 18.2384 22.6869L15.0704 30.1543C15.0327 30.2674 14.9573 30.3806 14.8441 30.3806ZM20.3127 40.7143C30.7596 40.7143 39.1698 32.304 39.1698 21.8571C39.1698 11.4103 30.7596 3 20.3127 3C9.86585 3 1.45557 11.4103 1.45557 21.8571C1.45557 32.304 9.86585 40.7143 20.3127 40.7143Z" fill="white"/>
</g>
<defs>
<clipPath id="clip0_5411_3211">
<rect width="39" height="44" fill="white" transform="translate(0.669434)"/>
</clipPath>
</defs>
</svg>
