<svg width="48" height="44" viewBox="0 0 48 44" fill="none" xmlns="http://www.w3.org/2000/svg">
<g clip-path="url(#clip0_5411_3214)">
<path d="M13.9785 14V23.6727L5.61489 14H0.669434V30H5.61489V20.3273L13.9785 30L18.8997 22L13.9785 14Z" fill="white"/>
<path d="M43.0452 20.4485C43.0452 21.3939 42.6089 22.4848 41.4452 22.4848H34.7786V17.9758H41.0089C42.5119 17.9758 43.0452 18.5818 43.0452 19.6727V20.4485ZM41.8089 14H34.7543L29.8089 22L34.7543 30V26.4606H43.0937C46.5846 26.4606 47.6513 23.7212 47.6513 21.3455V19.4545C47.6513 16.3273 46.5119 14 41.8089 14Z" fill="white"/>
<path d="M27.6998 14L24.3786 19.3091L21.0332 14H15.1907L20.1362 22L15.1907 30H21.0332L24.3786 24.6909L27.6998 30H33.5423L28.621 22L33.5423 14H27.6998Z" fill="white"/>
</g>
<defs>
<clipPath id="clip0_5411_3214">
<rect width="47" height="44" fill="white" transform="translate(0.669434)"/>
</clipPath>
</defs>
</svg>
